<svg version="1.1" xmlns="http://www.w3.org/2000/svg" viewBox="0 0 2094.206689536878 1110.2066895368782">
  <!-- svg-source:excalidraw -->
  
  <defs>
    <style>
      @font-face {
        font-family: "Virgil";
        src: url("https://excalidraw.com/FG_Virgil.woff2");
      }
      @font-face {
        font-family: "Cascadia";
        src: url("https://excalidraw.com/Cascadia.woff2");
      }
    </style>
  </defs>
  <rect x="0" y="0" width="2094.206689536878" height="1110.2066895368782" fill="#ffffff"></rect><g transform="translate(1145.299439400912 10) rotate(0 119.35365853658539 54.085365853658544)"><path d="M-0.3024425394530197 1.236486902309941 C59.74842394635131 2.1363604741350217, 118.16726031079337 2.2832229176393564, 238.09198847093802 -0.372354354523425 M0.08803436890961656 0.3745307482964984 C48.82189643106226 0.8009859293122988, 98.257997147847 1.248422377374404, 238.68510154191162 0.360421363471167 M237.42413752367037 -0.3600339312106371 C239.7575214160095 35.47347796841229, 238.18066951161725 72.24430485521783, 237.4874660878374 108.74381868245942 M239.69727076896714 0.05484978947788477 C239.20190602954042 28.949720770768003, 240.41991123970163 58.925449028974626, 238.8591294170289 108.30438208564115 M238.02668321408592 106.79078464541361 C181.7290136863822 108.09181484841339, 122.83872246884485 107.38569525706673, -1.3125241057153638 109.00967170635957 M238.73928842674167 107.53606199917643 C164.03083653562783 109.88050447203192, 89.57726849342372 109.2434047768482, 0.04988882195869072 108.56800874844745 M-1.2106138747185469 106.62838516834123 C2.2444179781337787 76.33592977887018, 0.3809869416614584 47.65205402501926, 1.4109460432082415 -0.22354829497635365 M0.7089036693796515 107.65975633247686 C1.6152091750682036 70.24258556938162, 1.3022180625975768 31.446616321484115, 0.10003897454589605 0.9813403049483895" stroke="#000000" stroke-width="1" fill="none"></path></g><g transform="translate(1212.9982428983808 51.32075471698113) rotate(0 60.5 12.5)"><text x="60.5" y="18" font-family="Virgil, Segoe UI Emoji" font-size="20px" fill="#000000" text-anchor="middle" style="white-space: pre;" direction="ltr">initialize sdk</text></g><g transform="translate(1774.613946885905 317.7944577784834) rotate(0 141.5 108)"><text x="0" y="17" font-family="Virgil, Segoe UI Emoji" font-size="19.55864504027363px" fill="#000000" text-anchor="start" style="white-space: pre;" direction="ltr">monitor events:</text><text x="0" y="41" font-family="Virgil, Segoe UI Emoji" font-size="19.55864504027363px" fill="#000000" text-anchor="start" style="white-space: pre;" direction="ltr"></text><text x="0" y="65" font-family="Virgil, Segoe UI Emoji" font-size="19.55864504027363px" fill="#000000" text-anchor="start" style="white-space: pre;" direction="ltr">1. response delay with element</text><text x="0" y="89" font-family="Virgil, Segoe UI Emoji" font-size="19.55864504027363px" fill="#000000" text-anchor="start" style="white-space: pre;" direction="ltr">path</text><text x="0" y="113" font-family="Virgil, Segoe UI Emoji" font-size="19.55864504027363px" fill="#000000" text-anchor="start" style="white-space: pre;" direction="ltr"></text><text x="0" y="137" font-family="Virgil, Segoe UI Emoji" font-size="19.55864504027363px" fill="#000000" text-anchor="start" style="white-space: pre;" direction="ltr">2. network error</text><text x="0" y="161" font-family="Virgil, Segoe UI Emoji" font-size="19.55864504027363px" fill="#000000" text-anchor="start" style="white-space: pre;" direction="ltr"></text><text x="0" y="185" font-family="Virgil, Segoe UI Emoji" font-size="19.55864504027363px" fill="#000000" text-anchor="start" style="white-space: pre;" direction="ltr">3. collect existing static </text><text x="0" y="209" font-family="Virgil, Segoe UI Emoji" font-size="19.55864504027363px" fill="#000000" text-anchor="start" style="white-space: pre;" direction="ltr">error when initializing</text></g><g transform="translate(52.31527938554564 297.6827814345705) rotate(0 181.5 112.5)"><text x="0" y="18" font-family="Virgil, Segoe UI Emoji" font-size="20px" fill="#000000" text-anchor="start" style="white-space: pre;" direction="ltr">collect information about first page:</text><text x="0" y="43" font-family="Virgil, Segoe UI Emoji" font-size="20px" fill="#000000" text-anchor="start" style="white-space: pre;" direction="ltr"></text><text x="0" y="68" font-family="Virgil, Segoe UI Emoji" font-size="20px" fill="#000000" text-anchor="start" style="white-space: pre;" direction="ltr">1. PerformanceTiming</text><text x="0" y="93" font-family="Virgil, Segoe UI Emoji" font-size="20px" fill="#000000" text-anchor="start" style="white-space: pre;" direction="ltr"></text><text x="0" y="118" font-family="Virgil, Segoe UI Emoji" font-size="20px" fill="#000000" text-anchor="start" style="white-space: pre;" direction="ltr">2. page info</text><text x="0" y="143" font-family="Virgil, Segoe UI Emoji" font-size="20px" fill="#000000" text-anchor="start" style="white-space: pre;" direction="ltr"></text><text x="0" y="168" font-family="Virgil, Segoe UI Emoji" font-size="20px" fill="#000000" text-anchor="start" style="white-space: pre;" direction="ltr">3. current static resources</text><text x="0" y="193" font-family="Virgil, Segoe UI Emoji" font-size="20px" fill="#000000" text-anchor="start" style="white-space: pre;" direction="ltr"></text><text x="0" y="218" font-family="Virgil, Segoe UI Emoji" font-size="20px" fill="#000000" text-anchor="start" style="white-space: pre;" direction="ltr">4. existing resource error</text></g><g transform="translate(929.53196900692 354.8930324717573) rotate(0 71.5 12.5)"><text x="0" y="18" font-family="Virgil, Segoe UI Emoji" font-size="20px" fill="#000000" text-anchor="start" style="white-space: pre;" direction="ltr">window loaded?</text></g><g transform="translate(1133.6993552966223 363.8575442124566) rotate(0 142 62.5)"><text x="0" y="18" font-family="Virgil, Segoe UI Emoji" font-size="20px" fill="#000000" text-anchor="start" style="white-space: pre;" direction="ltr">Reporter, when to report:</text><text x="0" y="43" font-family="Virgil, Segoe UI Emoji" font-size="20px" fill="#000000" text-anchor="start" style="white-space: pre;" direction="ltr"></text><text x="0" y="68" font-family="Virgil, Segoe UI Emoji" font-size="20px" fill="#000000" text-anchor="start" style="white-space: pre;" direction="ltr">1. long poll and when idle time</text><text x="0" y="93" font-family="Virgil, Segoe UI Emoji" font-size="20px" fill="#000000" text-anchor="start" style="white-space: pre;" direction="ltr"></text><text x="0" y="118" font-family="Virgil, Segoe UI Emoji" font-size="20px" fill="#000000" text-anchor="start" style="white-space: pre;" direction="ltr">2. there is data to report</text></g><g transform="translate(1526.6913965730441 434.6634468178174) rotate(0 67.5 12.5)"><text x="0" y="18" font-family="Virgil, Segoe UI Emoji" font-size="20px" fill="#000000" text-anchor="start" style="white-space: pre;" direction="ltr">interval check</text></g><g transform="translate(1295.0978174590034 577.6728709841921) rotate(0 84 37.5)"><text x="0" y="18" font-family="Virgil, Segoe UI Emoji" font-size="20px" fill="#000000" text-anchor="start" style="white-space: pre;" direction="ltr">1. compressed</text><text x="0" y="43" font-family="Virgil, Segoe UI Emoji" font-size="20px" fill="#000000" text-anchor="start" style="white-space: pre;" direction="ltr"></text><text x="0" y="68" font-family="Virgil, Segoe UI Emoji" font-size="20px" fill="#000000" text-anchor="start" style="white-space: pre;" direction="ltr">2. Image Beacon</text></g><g><g transform="translate(121.02434769281126 725.9432774917948) rotate(0 889.281671409481 -4.754964902071208)"><path d="M-0.6329497586935758 -1.117801897600293 C295.52402075356946 -2.779800620425461, 1480.2727485615367 -8.882166928294888, 1776.807422549752 -10.41967796496283 M1.2356128886528315 0.9097481608204543 C297.8024747398604 -0.6074283751770542, 1482.9998382314834 -7.726708936877392, 1779.1962925776554 -9.474561036687156" stroke="#000000" stroke-width="1" fill="none"></path></g></g><g transform="translate(1974.2867133594889 687.2462027785475) rotate(0 48.3760107816712 26.875561545372875)"><text x="0" y="37.75112309074578" font-family="Virgil, Segoe UI Emoji" font-size="43.00089847259662px" fill="#000000" text-anchor="start" style="white-space: pre;" direction="ltr">nginx</text></g><g><g transform="translate(133.8906156129874 776.4240022744061) rotate(0 881.0691715242173 -5.439525693297298)"><path d="M1.064004563167691 0.5642686676234008 C294.64797144250696 -0.8820409784111842, 1468.4373011433395 -7.794221016960076, 1761.9748748189434 -9.486868172149935 M0.16346822949126372 -0.18509422721341262 C293.5668196843167 -1.938560579700367, 1467.5323816378661 -10.11366971506723, 1761.1385781511328 -11.443320054218002" stroke="#000000" stroke-width="1" fill="none"></path></g></g><g transform="translate(1969.1017858443734 751.6505865616373) rotate(0 51.207547169811235 21.239493996569422)"><text x="0" y="29.478987993138887" font-family="Virgil, Segoe UI Emoji" font-size="33.805848239810466px" fill="#000000" text-anchor="start" style="white-space: pre;" direction="ltr">server</text></g><g transform="translate(1212.0053599610835 932.8487817190182) rotate(0 104 62.5)"><text x="0" y="18" font-family="Virgil, Segoe UI Emoji" font-size="20px" fill="#000000" text-anchor="start" style="white-space: pre;" direction="ltr">collect API:</text><text x="0" y="43" font-family="Virgil, Segoe UI Emoji" font-size="20px" fill="#000000" text-anchor="start" style="white-space: pre;" direction="ltr"></text><text x="0" y="68" font-family="Virgil, Segoe UI Emoji" font-size="20px" fill="#000000" text-anchor="start" style="white-space: pre;" direction="ltr">1. append dat to disk</text><text x="0" y="93" font-family="Virgil, Segoe UI Emoji" font-size="20px" fill="#000000" text-anchor="start" style="white-space: pre;" direction="ltr"></text><text x="0" y="118" font-family="Virgil, Segoe UI Emoji" font-size="20px" fill="#000000" text-anchor="start" style="white-space: pre;" direction="ltr">2. response 204</text></g><g transform="translate(824.50969548488 978.5893407110595) rotate(0 75 12.5)"><text x="0" y="18" font-family="Virgil, Segoe UI Emoji" font-size="20px" fill="#000000" text-anchor="start" style="white-space: pre;" direction="ltr">data in log file</text></g><g transform="translate(342.2999855885412 904.30341334884) rotate(0 104.5 62.5)"><text x="0" y="18" font-family="Virgil, Segoe UI Emoji" font-size="20px" fill="#000000" text-anchor="start" style="white-space: pre;" direction="ltr">Schedule:</text><text x="0" y="43" font-family="Virgil, Segoe UI Emoji" font-size="20px" fill="#000000" text-anchor="start" style="white-space: pre;" direction="ltr"></text><text x="0" y="68" font-family="Virgil, Segoe UI Emoji" font-size="20px" fill="#000000" text-anchor="start" style="white-space: pre;" direction="ltr">1. process data</text><text x="0" y="93" font-family="Virgil, Segoe UI Emoji" font-size="20px" fill="#000000" text-anchor="start" style="white-space: pre;" direction="ltr"></text><text x="0" y="118" font-family="Virgil, Segoe UI Emoji" font-size="20px" fill="#000000" text-anchor="start" style="white-space: pre;" direction="ltr">2. save to database</text></g><g transform="translate(1063.4204270830598 954.0099537321648) rotate(0 24 12.5)"><text x="0" y="18" font-family="Virgil, Segoe UI Emoji" font-size="20px" fill="#000000" text-anchor="start" style="white-space: pre;" direction="ltr">write</text></g><g transform="translate(600.0637263596657 962.2283145346105) rotate(0 86.5 12.5)"><text x="0" y="18" font-family="Virgil, Segoe UI Emoji" font-size="20px" fill="#000000" text-anchor="start" style="white-space: pre;" direction="ltr">read and process</text></g><g transform="translate(1527.4633611232996 342.34419003550164) rotate(0 84 25)"><text x="0" y="18" font-family="Virgil, Segoe UI Emoji" font-size="20px" fill="#000000" text-anchor="start" style="white-space: pre;" direction="ltr">first check</text><text x="0" y="43" font-family="Virgil, Segoe UI Emoji" font-size="20px" fill="#000000" text-anchor="start" style="white-space: pre;" direction="ltr"> initialize Monitor</text></g><g transform="translate(516.665155599118 353.7642734623867) rotate(0 43.5 12.5)"><text x="0" y="18" font-family="Virgil, Segoe UI Emoji" font-size="20px" fill="#000000" text-anchor="start" style="white-space: pre;" direction="ltr">when idle</text></g><g transform="translate(641.2435677530016 342.63722126929673) rotate(0 112.26415094339632 59.43396226415092)"><path d="M0.01904522523847496 -1.6126552305561188 C74.45211702535313 -0.4952159086967356, 149.46255556838187 -0.010264260142709647, 224.50308489757163 -0.7775260774965801 M226.25307054589246 0.30794341303408146 C225.38877893005557 34.60651208600909, 224.8856292418117 70.53820797150851, 224.9421688444421 120.63983723159248 M222.91933842887462 117.78567620394257 C155.5407581505424 118.21654431666225, 90.42128294714398 118.87509580735943, -0.26841688865712565 117.19690649980832 M0.7609304990619421 117.74404474730903 C0.15295398054328158 84.64372480597417, 0.5044051986714859 45.96614389356998, 1.9376596417278051 0.7685658428817987" stroke="#000000" stroke-width="1.5" fill="none" stroke-dasharray="12 8"></path></g><g transform="translate(669.5077186963979 389.5711835334477) rotate(0 84 12.5)"><text x="84" y="18" font-family="Virgil, Segoe UI Emoji" font-size="20px" fill="#000000" text-anchor="middle" style="white-space: pre;" direction="ltr">wait unitil loaded</text></g><g transform="translate(10 266.88421955403084) rotate(0 219.81132075471692 150)"><path d="M0.338982630625387 0.36633167276878803 C92.99542699923931 1.223653691089618, 188.03396302783855 1.6378575827661994, 438.9436448958144 -0.4599754223016126 M-0.4965258104748866 -0.45882082946786834 C124.94643967967124 -1.968349768476094, 250.79748106194376 -1.8785506179638585, 439.3218009125411 -0.312289967324634 M438.5464017394993 1.243377489520263 C440.4038716702945 68.97258677222175, 440.11832755097873 137.22147325287168, 440.29590807332454 299.6602255672264 M439.0102115762918 -0.5909866989596542 C440.1145675041801 111.75734768346355, 439.30356804707714 223.49386547988252, 439.70219410226076 300.5558243491365 M438.6287892056418 300.4782753514262 C282.07562505140095 298.4449633463776, 123.6569706953981 298.9431997818724, -0.9434837917018013 299.0417541585946 M440.1204471252041 300.16550058341704 C339.2970974505145 300.411196833548, 238.96666776063952 300.8305736182802, 0.17301971516423492 300.3084214852338 M-0.6675362321115844 301.2300757417096 C-1.2753369527146758 218.89349082273498, -1.4901402884687127 139.00371768740214, 0.12836956958626583 -1.2733945013620145 M0.39887008908990584 300.4908064588449 C-1.423701721490692 218.6343023308776, -1.4563273771982301 135.38215728695002, 0.5944852731513735 -0.3287757100502309" stroke="#000000" stroke-width="1" fill="none"></path></g><g transform="translate(1103.0806174957115 318.2993138936536) rotate(0 179.24528301886795 104.71698113207549)"><path d="M0.6704682837276893 -0.6866423693850575 C110.57514224059989 2.699600321489953, 218.7007100153509 1.2468253468843817, 359.5167017046709 1.0816501652183153 M0.0720746375190145 0.0066966614813549815 C115.73863034456586 -1.343702064497601, 231.47203652118398 -1.8475754997290919, 358.5119081283607 0.20493881291601826 M358.8973190974063 0.5016737645323883 C358.57322389125426 47.43195545272372, 358.96532463743625 95.18535680971533, 359.4567947238895 207.8677384540021 M358.6808644977718 0.3134523920571899 C356.4199077675977 63.65885703514781, 357.13622581658035 129.616131803976, 358.8313252479764 209.41312725351366 M358.08134634918616 209.0845675257796 C229.60192423972347 207.95159817227832, 97.94210154538584 209.5766478971827, -0.8540747182448396 210.3332319806994 M358.63923178382515 210.01767151151668 C217.7220331910364 209.90700194144873, 76.79434417209227 209.65634790558357, -0.10751325664627308 209.0768586919024 M-0.14890906935744808 208.6239812730379 C0.63446431945397 142.31022246709577, 0.4801933131745847 77.78575972413971, 0.23253538774272509 -1.7155909501613489 M-0.8758432187495387 209.34169083534874 C-0.9010017679188341 165.2790088482079, -1.5477425545100951 121.40131429675033, -0.10144020912588875 0.353239548374497" stroke="#000000" stroke-width="1" fill="none"></path></g><g transform="translate(1173.9485420240135 900.2066895368782) rotate(0 136.79245283018867 100)"><path d="M-1.1729920949761783 -1.3174603686850863 C106.49562809340688 3.2809679790089863, 214.12488606138572 2.7169652033913714, 273.07722681840943 1.2640506118973014 M-0.17643792648533185 -0.48787556213392425 C86.28414379728697 -0.9703375547367692, 173.5142236450225 -1.0145608171755895, 273.41107903095485 -0.3642290790266397 M275.354323565693 0.439211491321858 C275.97352502850754 55.30086719134015, 274.1026342740709 110.52770647124964, 273.91924667726107 200.64145799475352 M272.85552882821014 -0.7661855419580917 C274.9495610523864 72.33787313146539, 274.7938548147795 145.19604686055484, 273.80766537814566 199.94498439551313 M274.1038343710263 200.76177573807354 C215.05578356943434 199.1854744432988, 153.15883109312006 198.82018794327635, -0.9155499095956047 200.94856508037662 M273.58138303883067 199.4158793963141 C178.4780785654523 200.69158321235838, 81.92128307199191 200.97701428325695, 0.36050084384013203 200.59073542210746 M-1.0856481307015382 198.36515490605075 C-0.22910928447365753 139.3034928201875, -0.6525622254718542 76.84463521533851, 0.5032671321193016 1.109526530812677 M0.8545875377071779 200.58676866318547 C1.4842728089564758 154.72333816777473, 2.3514860475038604 109.00023593567157, 0.44416522313692974 -0.6810899572618585" stroke="#000000" stroke-width="1" fill="none"></path></g><g transform="translate(787.257289879931 933.1912521440825) rotate(0 108.4905660377359 63.20754716981139)"><path d="M-0.10272664244520092 -0.6596560383327345 C54.75742073624053 0.10305807734556915, 105.75178595332713 0.477576854581502, 216.3539018309211 1.2927421255560232 M0.45031375144599506 -0.607599723952937 C76.22413452094457 0.07320481760780378, 150.6005956416233 -0.189708118094989, 216.57775387858584 -0.10785365316963134 M216.31470764270233 -0.973794212564826 C219.27294473798142 28.94413263575652, 217.64264928252564 58.30054558332103, 218.86260301461624 126.89879778340332 M216.2702313859965 0.11281834077090025 C216.15791261463238 43.87185097557831, 215.76173326640202 87.18896905197508, 216.3852516909148 126.67305139113091 M215.4405502607676 124.88847947174308 C154.996367839036 126.03518872956809, 92.79311606594351 128.55379175195418, 1.2163220876633636 127.30423488125328 M216.62065923133 126.30396164043333 C168.08914119490544 127.54001163760616, 118.92260221004753 127.79615730813758, -0.09256786124193332 126.25151059440923 M1.4180547799915075 125.33737930968277 C1.6695125796920005 99.92171925524225, -0.8534487388008889 71.2327533078574, -1.1768911872059107 -1.7144976165145636 M-0.7778089893981814 126.79736710000657 C1.2321605321441624 92.29443791672105, 0.8246419962917303 56.294357358618655, 0.8793656276538968 -0.1417875187471509" stroke="#000000" stroke-width="1" fill="none"></path></g><g transform="translate(325.01715265866164 899.5583190394509) rotate(0 128.23756432247 80.18867924528297)"><path d="M0.42283422119294894 0.2833700110164167 C70.99139019789581 -0.3022510264249356, 146.0126891324308 -1.345473286717159, 255.71698343973682 -1.564102208606921 M0.018898056079583555 0.015763707114846683 C78.7688354998402 0.23854368075917573, 157.55921117700217 -0.841488268441001, 255.80015888126383 0.3081829801962096 M258.39148426414704 0.40209474228322506 C256.53239060497623 58.76391728341857, 253.17700357294422 116.36465240695138, 256.82892424226975 158.4446371942406 M257.33962843274 0.26925689447671175 C255.0020847473818 61.7626685725595, 255.9201504443365 122.73795757760762, 257.31126326774483 159.4317359020581 M255.63555523070804 160.69750545676288 C184.32993737162565 159.33391045310984, 108.64045043063867 161.16044326993327, 1.5457920950317927 159.63067658327526 M256.88845178578015 160.88088446820774 C170.13641603285043 159.33518650045636, 84.6158247391363 160.62075008994583, -0.12822751242280514 161.17963165352285 M1.247783312574029 160.1256397515183 C1.8798381755269076 124.07359720977402, 0.04754913543825401 89.30233736761471, -1.7181389834731817 -0.2868712339550257 M0.03847233485430479 159.47543424271248 C0.1490272345407948 108.24133894267432, -0.02047535158553271 56.55119372350774, 0.8899804456159472 0.2460903273895383" stroke="#000000" stroke-width="1" fill="none"></path></g><g><g transform="translate(1285.9339622641505 137.85420240137222) rotate(0 1.018356785826768 68.48246136218481)"><path d="M0.79295256100595 -0.9869276817888021 C1.2543709191296293 21.596213063157418, 2.1027306495178704 113.3990616612475, 2.2865996454589324 136.39694048907947 M-0.24988607380539185 1.1093313399329783 C0.09689199715741387 23.821170542358676, 1.1487271897439124 115.63805491253397, 1.3458371775158002 137.9518504061584" stroke="#000000" stroke-width="1" fill="none"></path></g><g transform="translate(1285.9339622641505 137.85420240137222) rotate(0 1.018356785826768 68.48246136218481)"><path d="M-10.853027870867738 109.89270992888629 C-6.200114169448472 116.4691649463685, -2.4520835441129263 124.68760469046138, 1.2339118642665698 139.2050545525585 M-9.719554743718692 109.77403054046005 C-5.878682334609071 119.75671665519249, -1.6404088402916424 130.86783654003108, 1.0484058175169184 138.64267190013422" stroke="#000000" stroke-width="1" fill="none"></path></g><g transform="translate(1285.9339622641505 137.85420240137222) rotate(0 1.018356785826768 68.48246136218481)"><path d="M9.667065188612174 109.67873979984049 C8.989623051006433 116.4463884878517, 7.405696456307246 124.72042639961033, 1.2339118642665698 139.2050545525585 M10.80053831576122 109.56006041141424 C7.032184445980985 119.74603313174946, 3.66022142576621 130.93650759282525, 1.0484058175169184 138.64267190013422" stroke="#000000" stroke-width="1" fill="none"></path></g></g><g transform="translate(1182.206689536878 191.49056603773585) rotate(0 39.5 12.5)"><text x="0" y="18" font-family="Virgil, Segoe UI Emoji" font-size="20px" fill="#000000" text-anchor="start" style="white-space: pre;" direction="ltr">initialize</text></g><g transform="translate(1747.8430531732415 281.30874785591783) rotate(0 168.18181818181813 147.72727272727275)"><path d="M-0.9747566978192227 0.3562824774044052 C71.98121542662889 -1.4865724224427894, 146.44973271479515 -0.5164632668751107, 335.3843267541169 1.222735618634696 M0.23962695740353812 -0.42557044654103326 C69.74022945010084 -1.6026399357454186, 140.51838490793892 -2.2070837400698236, 336.6214793181518 0.3547094194330626 M337.645741785917 -0.8358578157650234 C338.33005558061245 75.74618691678337, 337.47361945098885 150.87518953086774, 337.6045902061615 296.6868372625459 M336.6755717063147 -0.018344114033148874 C338.07372758474474 107.8781749497532, 337.38636654224814 215.15240730762653, 336.5093235660464 295.580001358033 M337.0319992080782 296.1163695126978 C234.95484882529675 294.6248152493703, 132.7458980379406 295.5543366804472, -0.1458121426428235 295.91247121554096 M335.7669466518492 295.5900543261203 C231.23158980332298 296.5772542283968, 126.54995920426151 297.09124383044616, -0.04390102483319949 295.2599120948096 M0.8958130720933298 294.1259637444045 C1.3183155808830849 226.22254910589706, -0.09560187037705903 158.29655457324645, 1.4771792397861752 0.5918059002958856 M0.43115175922426285 295.0508596962144 C0.4402582001407178 224.71464775528088, 0.5821129998422405 154.34539970099692, 0.007568567780402403 -0.6476243085591763" stroke="#000000" stroke-width="1" fill="none"></path></g><g><g transform="translate(1488.6612349914235 415.94511149228134) rotate(0 111.14871606393126 -1.2059550032358288)"><path d="M0.726303743943572 0.2080239001661539 C37.84089616138602 -0.11048464503026029, 185.7840337330532 -2.153126334952117, 222.64895764768804 -2.619933906637789 M-0.35152551982551805 -0.728367497585714 C36.60157026432568 -0.8108616444457175, 184.20385075577173 -1.145622690761388, 221.65979676727886 -1.2647921382195362" stroke="#000000" stroke-width="1" fill="none"></path></g><g transform="translate(1488.6612349914235 415.94511149228134) rotate(0 111.14871606393126 -1.2059550032358288)"><path d="M193.84310147920058 8.940194313365275 C201.33720843212484 4.48047346538713, 209.74083136390473 2.6489551764579353, 222.8689328267866 -3.058063640699447 M193.60314638083236 10.067640980656499 C203.78077074886787 4.9804801075266045, 213.05125688700755 1.6693154001359547, 222.24174980574037 -1.8096725628457078" stroke="#000000" stroke-width="1" fill="none"></path></g><g transform="translate(1488.6612349914235 415.94511149228134) rotate(0 111.14871606393126 -1.2059550032358288)"><path d="M193.788547042147 -11.580941771151025 C201.17761921511857 -9.950656265727162, 209.59743300886421 -5.691838008822009, 222.8689328267866 -3.058063640699447 M193.54859194377877 -10.453495103859801 C203.6658036063625 -8.366930977339962, 212.95536007663492 -4.5046208583101155, 222.24174980574037 -1.8096725628457078" stroke="#000000" stroke-width="1" fill="none"></path></g></g><g><g transform="translate(1500.0248713550598 481.8542024013722) rotate(0 105.61808857635765 -1.4958690099756495)"><path d="M-1.1076999004930257 -0.1818966988474131 C34.03709092990242 -0.8443287412438395, 174.78823512125422 -2.605492240743638, 210.2280863001604 -2.8098413211039315 M0.5116189224086702 -1.3229964110814034 C36.06508546813138 -1.3199738911714256, 177.28684878186917 -1.225480697093458, 212.34387705320833 -1.554400945280404" stroke="#000000" stroke-width="1" fill="none"></path></g><g transform="translate(1500.0248713550598 481.8542024013722) rotate(0 105.61808857635765 -1.4958690099756495)"><path d="M183.886947927446 6.914740838606377 C190.13739616706906 6.791501544984563, 199.41686379876415 5.41636560368065, 210.61704422565518 -1.5018197635307025 M183.71284754426114 8.915144122701605 C190.5782173888692 7.05333256684593, 195.1804772113665 4.468365273780332, 211.74775666123597 -0.8818418432145427" stroke="#000000" stroke-width="1" fill="none"></path></g><g transform="translate(1500.0248713550598 481.8542024013722) rotate(0 105.61808857635765 -1.4958690099756495)"><path d="M183.81328980073522 -13.606335567523214 C190.2810858593041 -8.66815582746988, 199.57871845247973 -4.982552660928875, 210.61704422565518 -1.5018197635307025 M183.63918941755037 -11.605932283427986 C190.55987438673893 -9.213226505110452, 195.1774043647577 -7.543944577039757, 211.74775666123597 -0.8818418432145427" stroke="#000000" stroke-width="1" fill="none"></path></g></g><g><g transform="translate(1256.6612349914233 556.1269296740995) rotate(0 0.645648618989128 141.44554546015848)"><path d="M0.44175140820443626 -0.21777456365525727 C0.6964345368359279 46.87031548512029, 1.6153539596069817 235.94492357880108, 2.076765069805856 283.19941186671235 M-0.7854678318277002 -1.377710154913366 C-0.7539609858404803 45.778040372215656, 0.4054777376298072 236.66981251862126, 1.025839449644859 284.2688010752303" stroke="#000000" stroke-width="1" fill="none"></path></g><g transform="translate(1256.6612349914233 556.1269296740995) rotate(0 0.645648618989128 141.44554546015848)"><path d="M-9.849056999606113 255.8441700395237 C-7.180632834675018 267.40867277116, -3.3635168057225684 274.15394156393575, 2.7119035048343494 284.2668091271174 M-9.395596336980383 256.84381564613835 C-6.183544385596521 264.62413347534465, -3.064843091208542 273.21047031754046, 0.6278257284246638 283.74846405518326" stroke="#000000" stroke-width="1" fill="none"></path></g><g transform="translate(1256.6612349914233 556.1269296740995) rotate(0 0.645648618989128 141.44554546015848)"><path d="M10.671333352666647 255.66091563660126 C6.246427695960152 267.36431440981005, 2.969189401860497 274.1729383163664, 2.7119035048343494 284.2668091271174 M11.124794015292377 256.6605612432159 C8.336886854872255 264.5685472143146, 5.456787902557987 273.2084554817411, 0.6278257284246638 283.74846405518326" stroke="#000000" stroke-width="1" fill="none"></path></g></g><g><g transform="translate(1066.9339622641505 394.13307193737734) rotate(0 -92.14215354937164 -0.009886496021579205)"><path d="M-0.08924606814980507 0.0030443407595157623 C-30.563480655645773 -0.17936265787767144, -152.91071457314214 -0.32633004890316586, -183.53753628832365 -0.4419775565735562 M-1.5952389832679184 -1.0409613256808372 C-32.118513472556884 -1.088467774369809, -153.71268586572168 0.7774058438043161, -184.19506103059354 1.0211883336376832" stroke="#000000" stroke-width="1" fill="none"></path></g><g transform="translate(1066.9339622641505 394.13307193737734) rotate(0 -92.14215354937164 -0.009886496021579205)"><path d="M-156.1235752562502 -8.652585410211328 C-163.1079061988322 -6.626860404354703, -170.32380409679382 -5.514279105671687, -183.20371205246153 2.4277117438685583 M-155.28930587605328 -9.635333924252633 C-162.7092801350261 -6.577257156816518, -168.69654758761533 -4.429992278215733, -184.28456142617466 0.747593237094252" stroke="#000000" stroke-width="1" fill="none"></path></g><g transform="translate(1066.9339622641505 394.13307193737734) rotate(0 -92.14215354937164 -0.009886496021579205)"><path d="M-155.87885107247874 11.867163917198036 C-163.03405427177233 8.920307846420995, -170.3092543709758 5.060490074063536, -183.20371205246153 2.4277117438685583 M-155.0445816922818 10.884415403156732 C-162.38351254086788 9.539856389254638, -168.42329211657218 7.2840598851818, -184.28456142617466 0.747593237094252" stroke="#000000" stroke-width="1" fill="none"></path></g></g><g><g transform="translate(476.5703259005145 484.03602058319035) rotate(0 295.8948544676331 0.5577076444180875)"><path d="M-0.9297641135752202 -0.6435263894498348 C97.8400627169419 -0.5234995864331722, 493.64202826788465 -0.20802638754248617, 592.7194730488412 -0.2619139216840267 M0.7829709974583237 1.6330183107499034 C99.34552653427572 2.0204269335512075, 492.8334287850261 1.436336547220126, 591.5286963904013 1.1380065206531436" stroke="#000000" stroke-width="1" fill="none"></path></g><g transform="translate(476.5703259005145 484.03602058319035) rotate(0 295.8948544676331 0.5577076444180875)"><path d="M562.2864054202962 10.685636310053436 C571.6937439888113 9.081062169232851, 579.2057219191813 4.488517322327061, 592.0448673652221 1.2271320980135352 M562.7096300836581 12.16336145266649 C570.1468073696973 9.550854566319819, 575.8198516623189 7.8711422137741485, 591.9447846455236 2.1341695293877274" stroke="#000000" stroke-width="1" fill="none"></path></g><g transform="translate(476.5703259005145 484.03602058319035) rotate(0 295.8948544676331 0.5577076444180875)"><path d="M562.2444599287039 -9.835529421005173 C571.4967891595692 -5.111543450818969, 579.0217020730842 -3.375853181824711, 592.0448673652221 1.2271320980135352 M562.6676845920658 -8.35780427839212 C569.983369604619 -6.680384873634656, 575.665182066957 -4.070409417665589, 591.9447846455236 2.1341695293877274" stroke="#000000" stroke-width="1" fill="none"></path></g></g><g><g transform="translate(624.297598627787 393.1269296740995) rotate(0 -76.11764095038427 -1.5876875351289073)"><path d="M-0.27744344249367714 -0.4724126122891903 C-25.851076047641754 -0.5312896548572781, -127.83306176475047 -0.7214159691649684, -153.5746623569591 -1.1629964113912592 M1.7777600208576771 -1.7660331790801138 C-23.85732371807803 -2.06258928443192, -127.78540169656077 -2.622264382935987, -154.01304192162624 -2.702962457968579" stroke="#000000" stroke-width="1" fill="none"></path></g><g transform="translate(624.297598627787 393.1269296740995) rotate(0 -76.11764095038427 -1.5876875351289073)"><path d="M-126.56367041231827 -11.218450326908187 C-132.1535174443864 -10.276533192441551, -143.57672318371723 -8.026347166011274, -154.57523722640744 -4.432519551201449 M-124.8983617226197 -13.102689886901334 C-135.3292553107278 -8.83180916326067, -144.44026899538218 -6.337949721026852, -153.71871260433963 -3.1324877159881455" stroke="#000000" stroke-width="1" fill="none"></path></g><g transform="translate(624.297598627787 393.1269296740995) rotate(0 -76.11764095038427 -1.5876875351289073)"><path d="M-126.65613725962275 9.302549947639573 C-132.08079676112854 4.3155939625933115, -143.4772862602073 0.6366930835070885, -154.57523722640744 -4.432519551201449 M-124.99082856992418 7.418310387646424 C-135.33515600853005 4.9688807749795165, -144.41588886937845 0.7425717270906613, -153.71871260433963 -3.1324877159881455" stroke="#000000" stroke-width="1" fill="none"></path></g></g><g transform="translate(699.2975986277872 504.58147512864485) rotate(0 32 12.5)"><text x="0" y="18" font-family="Virgil, Segoe UI Emoji" font-size="20px" fill="#000000" text-anchor="start" style="white-space: pre;" direction="ltr">report</text></g><g><g transform="translate(1134.5703259005143 1002.3996569468268) rotate(0 -53.076191173693246 0.4477472100639943)"><path d="M0.6766940094530582 0.6965303085744381 C-16.84646070516018 0.5710587881505489, -88.16486393689652 -0.16831005588173864, -106.20365662148046 -0.2542300321161747 M-0.4271803649235517 0.01660477523691961 C-17.961421684429997 0.029628454791382097, -89.3920818272653 0.886903953002766, -106.8290763568395 1.1497244522441181" stroke="#000000" stroke-width="1" fill="none"></path></g><g transform="translate(1134.5703259005143 1002.3996569468268) rotate(0 -53.076191173693246 0.4477472100639943)"><path d="M-77.61415686153184 -8.454852512353458 C-85.08164504731394 -8.305090070846555, -90.28329438351628 -6.237237480922502, -105.20109653810795 1.363554442720488 M-77.78738256797503 -10.232928231605687 C-89.66960662160716 -5.182128068535495, -100.42196434004823 -1.9093642354725215, -107.78887248935933 0.8306115869898352" stroke="#000000" stroke-width="1" fill="none"></path></g><g transform="translate(1134.5703259005143 1002.3996569468268) rotate(0 -53.076191173693246 0.4477472100639943)"><path d="M-77.34550268798867 12.064597463727218 C-84.9550083090711 7.8806765332875095, -90.21341692145594 5.6133307790161915, -105.20109653810795 1.363554442720488 M-77.51872839443186 10.286521744474989 C-89.40071718649965 7.348704945593871, -100.25768172460914 2.631738431147739, -107.78887248935933 0.8306115869898352" stroke="#000000" stroke-width="1" fill="none"></path></g></g><g><g transform="translate(602.7521440823325 1018.3087478559175) rotate(0 82.3006533929422 0.23174437147099525)"><path d="M0.22048741802573213 -0.8518444798886775 C27.905010358199043 -0.7328781627118587, 138.24959060899695 0.5488929487764838, 165.72420220273472 0.8372554756700994 M-1.1228954168502243 1.315333222830668 C26.42093532355645 1.0911246047262102, 136.5717795370404 -0.45936146489344537, 164.67909016827045 -0.8457601483818143" stroke="#000000" stroke-width="1" fill="none"></path></g><g transform="translate(602.7521440823325 1018.3087478559175) rotate(0 82.3006533929422 0.23174437147099525)"><path d="M135.21318029633593 9.495617836480653 C145.53625190163336 5.495659559087, 153.12357196240654 3.2094074015820695, 165.02344121778307 -2.6762491244729607 M136.26652368738186 9.434447014471209 C146.26959593819774 6.321163152899604, 155.289411119114 2.4700956021572518, 165.34418386029003 -0.10815267114900051" stroke="#000000" stroke-width="1" fill="none"></path></g><g transform="translate(602.7521440823325 1018.3087478559175) rotate(0 82.3006533929422 0.23174437147099525)"><path d="M134.92935414820036 -11.023627888045231 C145.3496268093096 -9.52312947847022, 153.0130374569869 -6.3084034482183995, 165.02344121778307 -2.6762491244729607 M135.9826975392463 -11.084798710054676 C146.1743001629453 -7.565342172247724, 155.2858853505137 -4.781885987223259, 165.34418386029003 -0.10815267114900051" stroke="#000000" stroke-width="1" fill="none"></path></g></g></svg>